<svg viewBox="0 0 760 400" xmlns="http://www.w3.org/2000/svg" font-family="Segoe UI, Helvetica, Arial, sans-serif">
<rect width="760" height="400" fill="#f7f8fa"/>
<text x="30" y="30" font-size="17" font-weight="700" fill="#1f2733">Washer tilt vs press depth (Isaac Sim, spring surface k=300)</text>
<rect x="90" y="283" width="600" height="33" fill="#ffd23f" opacity="0.35"/>
<text x="695" y="300" font-size="11" fill="#8a6d1f">target 10-20 deg</text>
<line x1="90" y1="50" x2="90" y2="350" stroke="#9aa2ad" stroke-width="1.4"/>
<line x1="90" y1="350" x2="700" y2="350" stroke="#9aa2ad" stroke-width="1.4"/>
<line x1="90" y1="350" x2="90" y2="355" stroke="#9aa2ad"/><text x="90" y="368" font-size="11" fill="#5b6470" text-anchor="middle">0</text><line x1="233" y1="350" x2="233" y2="355" stroke="#9aa2ad"/><text x="233" y="368" font-size="11" fill="#5b6470" text-anchor="middle">2</text><line x1="376" y1="350" x2="376" y2="355" stroke="#9aa2ad"/><text x="376" y="368" font-size="11" fill="#5b6470" text-anchor="middle">4</text><line x1="519" y1="350" x2="519" y2="355" stroke="#9aa2ad"/><text x="519" y="368" font-size="11" fill="#5b6470" text-anchor="middle">6</text><line x1="661" y1="350" x2="661" y2="355" stroke="#9aa2ad"/><text x="661" y="368" font-size="11" fill="#5b6470" text-anchor="middle">8</text><line x1="85" y1="350" x2="90" y2="350" stroke="#9aa2ad"/><text x="80" y="354" font-size="11" fill="#5b6470" text-anchor="end">0</text><line x1="85" y1="283" x2="90" y2="283" stroke="#9aa2ad"/><text x="80" y="287" font-size="11" fill="#5b6470" text-anchor="end">20</text><line x1="85" y1="217" x2="90" y2="217" stroke="#9aa2ad"/><text x="80" y="221" font-size="11" fill="#5b6470" text-anchor="end">40</text><line x1="85" y1="150" x2="90" y2="150" stroke="#9aa2ad"/><text x="80" y="154" font-size="11" fill="#5b6470" text-anchor="end">60</text><line x1="85" y1="83" x2="90" y2="83" stroke="#9aa2ad"/><text x="80" y="87" font-size="11" fill="#5b6470" text-anchor="end">80</text>
<text x="390" y="392" font-size="12" fill="#1f2733" text-anchor="middle">finger press depth below surface (mm)</text>
<text x="24" y="200" font-size="12" fill="#1f2733" text-anchor="middle" transform="rotate(-90 24 200)">washer tilt (deg)</text>
<polyline points="133,331 176,327 219,324 261,313 304,280 347,185 390,90 433,104 476,100 519,82 561,52 604,78 647,71 661,71 661,70 661,70 661,69 661,69 661,69 661,69 661,69 661,69 661,69 661,69 661,69 661,69 661,69 661,69" fill="none" stroke="#157a4f" stroke-width="3"/>
<circle cx="133" cy="331" r="3" fill="#157a4f"/><circle cx="176" cy="327" r="3" fill="#157a4f"/><circle cx="219" cy="324" r="3" fill="#157a4f"/><circle cx="261" cy="313" r="3" fill="#157a4f"/><circle cx="304" cy="280" r="3" fill="#157a4f"/><circle cx="347" cy="185" r="3" fill="#157a4f"/><circle cx="390" cy="90" r="3" fill="#157a4f"/><circle cx="433" cy="104" r="3" fill="#157a4f"/><circle cx="476" cy="100" r="3" fill="#157a4f"/><circle cx="519" cy="82" r="3" fill="#157a4f"/><circle cx="561" cy="52" r="3" fill="#157a4f"/><circle cx="604" cy="78" r="3" fill="#157a4f"/><circle cx="647" cy="71" r="3" fill="#157a4f"/><circle cx="661" cy="71" r="3" fill="#157a4f"/><circle cx="661" cy="70" r="3" fill="#157a4f"/><circle cx="661" cy="70" r="3" fill="#157a4f"/><circle cx="661" cy="69" r="3" fill="#157a4f"/><circle cx="661" cy="69" r="3" fill="#157a4f"/><circle cx="661" cy="69" r="3" fill="#157a4f"/><circle cx="661" cy="69" r="3" fill="#157a4f"/><circle cx="661" cy="69" r="3" fill="#157a4f"/><circle cx="661" cy="69" r="3" fill="#157a4f"/><circle cx="661" cy="69" r="3" fill="#157a4f"/><circle cx="661" cy="69" r="3" fill="#157a4f"/><circle cx="661" cy="69" r="3" fill="#157a4f"/><circle cx="661" cy="69" r="3" fill="#157a4f"/><circle cx="661" cy="69" r="3" fill="#157a4f"/><circle cx="661" cy="69" r="3" fill="#157a4f"/>
<line x1="290" y1="60" x2="290" y2="350" stroke="#e0483c" stroke-width="1.3" stroke-dasharray="5 4"/>
<text x="296" y="80" font-size="11.5" fill="#e0483c">tip-over cliff ~2.8 mm</text>
<text x="233" y="250" font-size="11.5" fill="#157a4f">stable dwell 13-15 deg</text>
</svg>